<?xml version="1.0" encoding="utf-8"?>
<svg width="57px" height="55px" viewBox="0 0 57 55" version="1.1" xmlns:xlink="http://www.w3.org/1999/xlink" xmlns="http://www.w3.org/2000/svg">
  <desc>Created with Lunacy</desc>
  <defs>
    <radialGradient gradientUnits="objectBoundingBox" cx="49.9818%" cy="49.99872%" fx="49.9818%" fy="49.99872%" r="49.99696%" gradientTransform="translate(0.4998181,0.4999872),scale(1,0.9411764),rotate(1.101949),scale(1,0),translate(-0.4998181,-0.4999872)" id="gradient_1">
      <stop offset="59.8%" stop-color="#FFFFFF" />
      <stop offset="98.73%" stop-color="#FDFDFD" stop-opacity="0" />
    </radialGradient>
    <radialGradient gradientUnits="objectBoundingBox" cx="49.98683%" cy="49.94851%" fx="49.98683%" fy="49.94851%" r="224.0224%" gradientTransform="translate(0.4998683,0.499485),scale(0.2258064,1),rotate(-8.837334),scale(1,0),translate(-0.4998683,-0.499485)" id="gradient_2">
      <stop offset="8.38%" stop-color="#FFFFFF" stop-opacity="0.8" />
      <stop offset="98.73%" stop-color="#FDFDFD" stop-opacity="0" />
    </radialGradient>
    <radialGradient gradientUnits="objectBoundingBox" cx="49.9978%" cy="50.01535%" fx="49.9978%" fy="50.01535%" r="68.70215%" gradientTransform="translate(0.499978,0.5001535),scale(0.9642858,1),rotate(-136.3997),scale(1,0),translate(-0.499978,-0.5001535)" id="gradient_3">
      <stop offset="10.05%" stop-color="#FFFFFF" stop-opacity="0.8" />
      <stop offset="98.73%" stop-color="#FDFDFD" stop-opacity="0" />
    </radialGradient>
    <radialGradient gradientUnits="objectBoundingBox" cx="50.0156%" cy="50.00422%" fx="50.0156%" fy="50.00422%" r="59.0945%" gradientTransform="translate(0.500156,0.5000421),rotate(-136.1933),scale(1,0),translate(-0.500156,-0.5000421)" id="gradient_4">
      <stop offset="10.05%" stop-color="#FFFFFF" stop-opacity="0.8" />
      <stop offset="98.73%" stop-color="#FDFDFD" stop-opacity="0" />
    </radialGradient>
    <radialGradient gradientUnits="objectBoundingBox" cx="50.07821%" cy="50.0154%" fx="50.07821%" fy="50.0154%" r="151.2328%" gradientTransform="translate(0.5007821,0.500154),scale(1,0.3333333),rotate(-97.74394),scale(1,0),translate(-0.5007821,-0.500154)" id="gradient_5">
      <stop offset="59.8%" stop-color="#FFFFFF" stop-opacity="0.9019608" />
      <stop offset="98.73%" stop-color="#FDFDFD" stop-opacity="0" />
    </radialGradient>
    <radialGradient gradientUnits="objectBoundingBox" cx="49.97791%" cy="49.98664%" fx="49.97791%" fy="49.98664%" r="105.792%" gradientTransform="translate(0.4997791,0.4998664),scale(1,0.5217391),rotate(-64.23941),scale(1,0),translate(-0.4997791,-0.4998664)" id="gradient_6">
      <stop offset="59.8%" stop-color="#FFFFFF" stop-opacity="0.698039234" />
      <stop offset="98.73%" stop-color="#FDFDFD" stop-opacity="0" />
    </radialGradient>
    <radialGradient gradientUnits="objectBoundingBox" cx="49.99717%" cy="49.99123%" fx="49.99717%" fy="49.99123%" r="161.7881%" gradientTransform="translate(0.4999717,0.4999123),scale(0.3225806,1),rotate(16.76175),scale(1,0),translate(-0.4999717,-0.4999123)" id="gradient_7">
      <stop offset="50.96%" stop-color="#FFFFFF" stop-opacity="0.101960786" />
      <stop offset="75.05%" stop-color="#FDFDFD" stop-opacity="0" />
    </radialGradient>
    <radialGradient gradientUnits="objectBoundingBox" cx="50.35423%" cy="50.01047%" fx="50.35423%" fy="50.01047%" r="1229.175%" gradientTransform="translate(0.5035423,0.5001047),scale(1,0.04070175),rotate(-91.96221),scale(1,0),translate(-0.5035423,-0.5001047)" id="gradient_8">
      <stop offset="59.8%" stop-color="#FFFFFF" stop-opacity="0.9019608" />
      <stop offset="98.73%" stop-color="#FDFDFD" stop-opacity="0" />
    </radialGradient>
    <radialGradient gradientUnits="objectBoundingBox" cx="49.88136%" cy="50.00768%" fx="49.88136%" fy="50.00768%" r="316.3864%" gradientTransform="translate(0.4988136,0.5000768),scale(1,0.16),rotate(-99.00519),scale(1,0),translate(-0.4988136,-0.5000768)" id="gradient_9">
      <stop offset="59.8%" stop-color="#FFFFFF" stop-opacity="0.9019608" />
      <stop offset="98.73%" stop-color="#FDFDFD" stop-opacity="0" />
    </radialGradient>
    <radialGradient gradientUnits="objectBoundingBox" cx="49.28246%" cy="49.99991%" fx="49.28246%" fy="49.99991%" r="1228.533%" gradientTransform="translate(0.4928246,0.4999991),scale(1,0.04070175),rotate(-89.21921),scale(1,0),translate(-0.4928246,-0.4999991)" id="gradient_10">
      <stop offset="59.8%" stop-color="#FFFFFF" stop-opacity="0.9019608" />
      <stop offset="98.73%" stop-color="#FDFDFD" stop-opacity="0" />
    </radialGradient>
    <radialGradient gradientUnits="objectBoundingBox" cx="50.02393%" cy="49.9919%" fx="50.02393%" fy="49.9919%" r="626.8245%" gradientTransform="translate(0.5002393,0.499919),scale(1,0.07999999),rotate(-94.3585),scale(1,0),translate(-0.5002393,-0.499919)" id="gradient_11">
      <stop offset="59.8%" stop-color="#FFFFFF" stop-opacity="0.9019608" />
      <stop offset="98.73%" stop-color="#FDFDFD" stop-opacity="0" />
    </radialGradient>
    <radialGradient gradientUnits="objectBoundingBox" cx="50.10017%" cy="50.0122%" fx="50.10017%" fy="50.0122%" r="95.84682%" gradientTransform="translate(0.5010017,0.500122),scale(1,0.6111112),rotate(-58.59826),scale(1,0),translate(-0.5010017,-0.500122)" id="gradient_12">
      <stop offset="59.8%" stop-color="#FFFFFF" stop-opacity="0.9019608" />
      <stop offset="98.73%" stop-color="#FDFDFD" stop-opacity="0" />
    </radialGradient>
    <radialGradient gradientUnits="objectBoundingBox" cx="50%" cy="49.96172%" fx="50%" fy="49.96172%" r="73.24583%" gradientTransform="translate(0.5,0.4996172),scale(1,0.9333332),rotate(-46.97985),scale(1,0),translate(-0.5,-0.4996172)" id="gradient_13">
      <stop offset="59.8%" stop-color="#FFFFFF" stop-opacity="0.9019608" />
      <stop offset="98.73%" stop-color="#FDFDFD" stop-opacity="0" />
    </radialGradient>
    <radialGradient gradientUnits="objectBoundingBox" cx="50.04672%" cy="49.92468%" fx="50.04672%" fy="49.92468%" r="102.9108%" gradientTransform="translate(0.5004672,0.4992468),scale(0.5555555,1),rotate(-29.02),scale(1,0),translate(-0.5004672,-0.4992468)" id="gradient_14">
      <stop offset="59.8%" stop-color="#FFFFFF" stop-opacity="0.9019608" />
      <stop offset="98.73%" stop-color="#FDFDFD" stop-opacity="0" />
    </radialGradient>
    <radialGradient gradientUnits="objectBoundingBox" cx="50.0181%" cy="49.9826%" fx="50.0181%" fy="49.9826%" r="124.9399%" gradientTransform="translate(0.500181,0.499826),scale(0.4285714,1),rotate(-21.37529),scale(1,0),translate(-0.500181,-0.499826)" id="gradient_15">
      <stop offset="59.8%" stop-color="#FFFFFF" stop-opacity="0.5019608" />
      <stop offset="98.73%" stop-color="#FDFDFD" stop-opacity="0" />
    </radialGradient>
    <radialGradient gradientUnits="objectBoundingBox" cx="50.02115%" cy="49.92085%" fx="50.02115%" fy="49.92085%" r="86.4745%" gradientTransform="translate(0.5002115,0.4992085),scale(0.7058824,1),rotate(-35.10813),scale(1,0),translate(-0.5002115,-0.4992085)" id="gradient_16">
      <stop offset="59.8%" stop-color="#FFFFFF" stop-opacity="0.9019608" />
      <stop offset="98.73%" stop-color="#FDFDFD" stop-opacity="0" />
    </radialGradient>
    <radialGradient gradientUnits="objectBoundingBox" cx="50.01059%" cy="50.07322%" fx="50.01059%" fy="50.07322%" r="95.84052%" gradientTransform="translate(0.5001059,0.5007322),scale(0.611111,1),rotate(-31.40513),scale(1,0),translate(-0.5001059,-0.5007322)" id="gradient_17">
      <stop offset="59.8%" stop-color="#FFFFFF" stop-opacity="0.9019608" />
      <stop offset="98.73%" stop-color="#FDFDFD" stop-opacity="0" />
    </radialGradient>
    <radialGradient gradientUnits="objectBoundingBox" cx="50.03157%" cy="50.02828%" fx="50.03157%" fy="50.02828%" r="70.67869%" gradientTransform="translate(0.5003157,0.5002828),rotate(-44.99852),scale(1,0),translate(-0.5003157,-0.5002828)" id="gradient_18">
      <stop offset="59.8%" stop-color="#FFFFFF" stop-opacity="0.9019608" />
      <stop offset="98.73%" stop-color="#FDFDFD" stop-opacity="0" />
    </radialGradient>
    <radialGradient gradientUnits="objectBoundingBox" cx="50.02753%" cy="49.97162%" fx="50.02753%" fy="49.97162%" r="74.95117%" gradientTransform="translate(0.5002753,0.4997162),scale(0.8888888,1),rotate(-41.58246),scale(1,0),translate(-0.5002753,-0.4997162)" id="gradient_19">
      <stop offset="59.8%" stop-color="#FFFFFF" stop-opacity="0.9019608" />
      <stop offset="98.73%" stop-color="#FDFDFD" stop-opacity="0" />
    </radialGradient>
    <radialGradient gradientUnits="objectBoundingBox" cx="50.01777%" cy="52.8329%" fx="50.01777%" fy="52.8329%" r="885.3022%" gradientTransform="translate(0.5001777,0.528329),scale(0.05653022,1),rotate(-2.444187),scale(1,0),translate(-0.5001777,-0.528329)" id="gradient_20">
      <stop offset="59.8%" stop-color="#FFFFFF" stop-opacity="0.9019608" />
      <stop offset="98.73%" stop-color="#FDFDFD" stop-opacity="0" />
    </radialGradient>
    <radialGradient gradientUnits="objectBoundingBox" cx="50.01538%" cy="50.1151%" fx="50.01538%" fy="50.1151%" r="304.1212%" gradientTransform="translate(0.5001538,0.501151),scale(0.1666667,1),rotate(9.430216),scale(1,0),translate(-0.5001538,-0.501151)" id="gradient_21">
      <stop offset="59.8%" stop-color="#FFFFFF" stop-opacity="0.9019608" />
      <stop offset="98.73%" stop-color="#FDFDFD" stop-opacity="0" />
    </radialGradient>
    <radialGradient gradientUnits="objectBoundingBox" cx="49.85611%" cy="49.99571%" fx="49.85611%" fy="49.99571%" r="419.6096%" gradientTransform="translate(0.4985611,0.4999571),scale(1,0.12),rotate(-83.22169),scale(1,0),translate(-0.4985611,-0.4999571)" id="gradient_22">
      <stop offset="59.8%" stop-color="#FFFFFF" stop-opacity="0.9019608" />
      <stop offset="98.73%" stop-color="#FDFDFD" stop-opacity="0" />
    </radialGradient>
    <radialGradient gradientUnits="objectBoundingBox" cx="49.67539%" cy="49.99757%" fx="49.67539%" fy="49.99757%" r="1229.418%" gradientTransform="translate(0.4967539,0.4999757),scale(1,0.04070175),rotate(-87.72388),scale(1,0),translate(-0.4967539,-0.4999757)" id="gradient_23">
      <stop offset="59.8%" stop-color="#FFFFFF" stop-opacity="0.9019608" />
      <stop offset="98.73%" stop-color="#FDFDFD" stop-opacity="0" />
    </radialGradient>
    <radialGradient gradientUnits="objectBoundingBox" cx="50.01362%" cy="50.26982%" fx="50.01362%" fy="50.26982%" r="1229.415%" gradientTransform="translate(0.5001362,0.5026982),scale(0.04070175,1),rotate(177.6873),scale(1,0),translate(-0.5001362,-0.5026982)" id="gradient_24">
      <stop offset="59.8%" stop-color="#FFFFFF" stop-opacity="0.9019608" />
      <stop offset="98.73%" stop-color="#FDFDFD" stop-opacity="0" />
    </radialGradient>
    <radialGradient gradientUnits="objectBoundingBox" cx="50.00666%" cy="50.03486%" fx="50.00666%" fy="50.03486%" r="1229.428%" gradientTransform="translate(0.5000666,0.5003486),scale(0.04070175,1),rotate(-177.6827),scale(1,0),translate(-0.5000666,-0.5003486)" id="gradient_25">
      <stop offset="59.8%" stop-color="#FFFFFF" stop-opacity="0.9019608" />
      <stop offset="98.73%" stop-color="#FDFDFD" stop-opacity="0" />
    </radialGradient>
    <radialGradient gradientUnits="objectBoundingBox" cx="49.98604%" cy="49.91747%" fx="49.98604%" fy="49.91747%" r="1081.802%" gradientTransform="translate(0.4998604,0.4991747),scale(0.046252,1),rotate(-177.9292),scale(1,0),translate(-0.4998604,-0.4991747)" id="gradient_26">
      <stop offset="59.8%" stop-color="#FFFFFF" stop-opacity="0.9019608" />
      <stop offset="98.73%" stop-color="#FDFDFD" stop-opacity="0" />
    </radialGradient>
    <radialGradient gradientUnits="objectBoundingBox" cx="49.77376%" cy="50.01374%" fx="49.77376%" fy="50.01374%" r="626.8909%" gradientTransform="translate(0.4977376,0.5001374),scale(1,0.07999999),rotate(-94.47105),scale(1,0),translate(-0.4977376,-0.5001374)" id="gradient_27">
      <stop offset="59.8%" stop-color="#FFFFFF" stop-opacity="0.9019608" />
      <stop offset="98.73%" stop-color="#FDFDFD" stop-opacity="0" />
    </radialGradient>
    <radialGradient gradientUnits="objectBoundingBox" cx="50.01397%" cy="50.00942%" fx="50.01397%" fy="50.00942%" r="93.62867%" gradientTransform="translate(0.5001397,0.5000942),scale(0.631579,1),rotate(-147.7256),scale(1,0),translate(-0.5001397,-0.5000942)" id="gradient_28">
      <stop offset="59.8%" stop-color="#FFFFFF" stop-opacity="0.9019608" />
      <stop offset="98.73%" stop-color="#FDFDFD" stop-opacity="0" />
    </radialGradient>
    <radialGradient gradientUnits="objectBoundingBox" cx="50.01988%" cy="49.98368%" fx="50.01988%" fy="49.98368%" r="75.57174%" gradientTransform="translate(0.5001988,0.4998368),scale(0.8823531,1),rotate(-138.5752),scale(1,0),translate(-0.5001988,-0.4998368)" id="gradient_29">
      <stop offset="59.8%" stop-color="#FFFFFF" stop-opacity="0.9019608" />
      <stop offset="98.73%" stop-color="#FDFDFD" stop-opacity="0" />
    </radialGradient>
    <radialGradient gradientUnits="objectBoundingBox" cx="50.00441%" cy="50.00206%" fx="50.00441%" fy="50.00206%" r="81.43807%" gradientTransform="translate(0.5000441,0.5000206),scale(0.7777778,1),rotate(-142.1251),scale(1,0),translate(-0.5000441,-0.5000206)" id="gradient_30">
      <stop offset="59.8%" stop-color="#FFFFFF" stop-opacity="0.9019608" />
      <stop offset="98.73%" stop-color="#FDFDFD" stop-opacity="0" />
    </radialGradient>
    <radialGradient gradientUnits="objectBoundingBox" cx="50.00428%" cy="49.99528%" fx="50.00428%" fy="49.99528%" r="70.70815%" gradientTransform="translate(0.5000429,0.4999528),scale(1,0.9999998),rotate(-134.9969),scale(1,0),translate(-0.5000429,-0.4999528)" id="gradient_31">
      <stop offset="59.8%" stop-color="#FFFFFF" stop-opacity="0.9019608" />
      <stop offset="98.73%" stop-color="#FDFDFD" stop-opacity="0" />
    </radialGradient>
    <radialGradient gradientUnits="objectBoundingBox" cx="50.01008%" cy="49.982%" fx="50.01008%" fy="49.982%" r="85.40054%" gradientTransform="translate(0.5001008,0.49982),scale(0.7222222,1),rotate(-35.837),scale(1,0),translate(-0.5001008,-0.49982)" id="gradient_32">
      <stop offset="59.8%" stop-color="#FFFFFF" stop-opacity="0.9019608" />
      <stop offset="98.73%" stop-color="#FDFDFD" stop-opacity="0" />
    </radialGradient>
    <radialGradient gradientUnits="objectBoundingBox" cx="50.00367%" cy="50.00206%" fx="50.00367%" fy="50.00206%" r="140.4479%" gradientTransform="translate(0.5000367,0.5000206),scale(0.3809524,1),rotate(-20.8522),scale(1,0),translate(-0.5000367,-0.5000206)" id="gradient_33">
      <stop offset="59.8%" stop-color="#FFFFFF" stop-opacity="0.9019608" />
      <stop offset="98.73%" stop-color="#FDFDFD" stop-opacity="0" />
    </radialGradient>
    <radialGradient gradientUnits="objectBoundingBox" cx="49.98851%" cy="49.98845%" fx="49.98851%" fy="49.98845%" r="132.0464%" gradientTransform="translate(0.4998851,0.4998845),scale(0.4090909,1),rotate(-22.24888),scale(1,0),translate(-0.4998851,-0.4998845)" id="gradient_34">
      <stop offset="59.8%" stop-color="#FFFFFF" stop-opacity="0.9019608" />
      <stop offset="98.73%" stop-color="#FDFDFD" stop-opacity="0" />
    </radialGradient>
    <radialGradient gradientUnits="objectBoundingBox" cx="50.00066%" cy="49.98625%" fx="50.00066%" fy="49.98625%" r="206.1516%" gradientTransform="translate(0.5000066,0.4998625),scale(0.25,1),rotate(-14.03016),scale(1,0),translate(-0.5000066,-0.4998625)" id="gradient_35">
      <stop offset="59.8%" stop-color="#FFFFFF" stop-opacity="0.9019608" />
      <stop offset="98.73%" stop-color="#FDFDFD" stop-opacity="0" />
    </radialGradient>
    <radialGradient gradientUnits="objectBoundingBox" cx="49.99958%" cy="49.97261%" fx="49.99958%" fy="49.97261%" r="267.2207%" gradientTransform="translate(0.4999958,0.4997261),scale(0.1904762,1),rotate(-10.77788),scale(1,0),translate(-0.4999958,-0.4997261)" id="gradient_36">
      <stop offset="59.8%" stop-color="#FFFFFF" stop-opacity="0.9019608" />
      <stop offset="98.73%" stop-color="#FDFDFD" stop-opacity="0" />
    </radialGradient>
    <radialGradient gradientUnits="objectBoundingBox" cx="50.00306%" cy="50.05313%" fx="50.00306%" fy="50.05313%" r="225.6086%" gradientTransform="translate(0.5000306,0.5005313),scale(0.2272727,1),rotate(-12.8002),scale(1,0),translate(-0.5000306,-0.5005313)" id="gradient_37">
      <stop offset="59.8%" stop-color="#FFFFFF" stop-opacity="0.9019608" />
      <stop offset="98.73%" stop-color="#FDFDFD" stop-opacity="0" />
    </radialGradient>
    <radialGradient gradientUnits="objectBoundingBox" cx="50.00363%" cy="50.05563%" fx="50.00363%" fy="50.05563%" r="225.6086%" gradientTransform="translate(0.5000363,0.5005563),scale(0.2272727,1),rotate(-12.8002),scale(1,0),translate(-0.5000363,-0.5005563)" id="gradient_38">
      <stop offset="59.8%" stop-color="#FFFFFF" stop-opacity="0.9019608" />
      <stop offset="98.73%" stop-color="#FDFDFD" stop-opacity="0" />
    </radialGradient>
    <radialGradient gradientUnits="objectBoundingBox" cx="49.992%" cy="49.99112%" fx="49.992%" fy="49.99112%" r="279.491%" gradientTransform="translate(0.49992,0.4999112),scale(0.1818182,1),rotate(-10.29778),scale(1,0),translate(-0.49992,-0.4999112)" id="gradient_39">
      <stop offset="59.8%" stop-color="#FFFFFF" stop-opacity="0.9019608" />
      <stop offset="98.73%" stop-color="#FDFDFD" stop-opacity="0" />
    </radialGradient>
    <radialGradient gradientUnits="objectBoundingBox" cx="50.00226%" cy="49.9984%" fx="50.00226%" fy="49.9984%" r="73.1058%" gradientTransform="translate(0.5000226,0.499984),scale(0.9375001,1),rotate(-136.8481),scale(1,0),translate(-0.5000226,-0.499984)" id="gradient_40">
      <stop offset="59.8%" stop-color="#FFFFFF" stop-opacity="0.9019608" />
      <stop offset="98.73%" stop-color="#FDFDFD" stop-opacity="0" />
    </radialGradient>
    <radialGradient gradientUnits="objectBoundingBox" cx="50.00636%" cy="50.00263%" fx="50.00636%" fy="50.00263%" r="73.10586%" gradientTransform="translate(0.5000636,0.5000263),scale(0.9375001,1),rotate(-136.8481),scale(1,0),translate(-0.5000636,-0.5000263)" id="gradient_41">
      <stop offset="59.8%" stop-color="#FFFFFF" stop-opacity="0.5019608" />
      <stop offset="98.73%" stop-color="#FDFDFD" stop-opacity="0" />
    </radialGradient>
    <radialGradient gradientUnits="objectBoundingBox" cx="50.00183%" cy="50.23504%" fx="50.00183%" fy="50.23504%" r="1081.004%" gradientTransform="translate(0.5000183,0.5023504),scale(0.046252,1),rotate(180),scale(1,0),translate(-0.5000183,-0.5023504)" id="gradient_42">
      <stop offset="59.8%" stop-color="#FFFFFF" stop-opacity="0.5019608" />
      <stop offset="98.73%" stop-color="#FDFDFD" stop-opacity="0" />
    </radialGradient>
    <radialGradient gradientUnits="objectBoundingBox" cx="50.01452%" cy="49.98701%" fx="50.01452%" fy="49.98701%" r="81.4389%" gradientTransform="translate(0.5001452,0.4998701),scale(1,0.7777778),rotate(-127.8727),scale(1,0),translate(-0.5001452,-0.4998701)" id="gradient_43">
      <stop offset="59.8%" stop-color="#FFFFFF" stop-opacity="0.5019608" />
      <stop offset="98.73%" stop-color="#FDFDFD" stop-opacity="0" />
    </radialGradient>
    <radialGradient gradientUnits="objectBoundingBox" cx="49.99742%" cy="50.00008%" fx="49.99742%" fy="50.00008%" r="81.43933%" gradientTransform="translate(0.4999742,0.5000008),scale(1,0.7777778),rotate(-127.8747),scale(1,0),translate(-0.4999742,-0.5000008)" id="gradient_44">
      <stop offset="59.8%" stop-color="#FFFFFF" stop-opacity="0.5019608" />
      <stop offset="98.73%" stop-color="#FDFDFD" stop-opacity="0" />
    </radialGradient>
    <radialGradient gradientUnits="objectBoundingBox" cx="50.01376%" cy="50.00933%" fx="50.01376%" fy="50.00933%" r="75.56838%" gradientTransform="translate(0.5001376,0.5000933),scale(1,0.8823531),rotate(-131.423),scale(1,0),translate(-0.5001376,-0.5000933)" id="gradient_45">
      <stop offset="59.8%" stop-color="#FFFFFF" stop-opacity="0.5019608" />
      <stop offset="98.73%" stop-color="#FDFDFD" stop-opacity="0" />
    </radialGradient>
    <radialGradient gradientUnits="objectBoundingBox" cx="49.98626%" cy="50.01641%" fx="49.98626%" fy="50.01641%" r="86.70166%" gradientTransform="translate(0.4998626,0.5001642),scale(0.7058824,1),rotate(-144.7849),scale(1,0),translate(-0.4998626,-0.5001642)" id="gradient_46">
      <stop offset="59.8%" stop-color="#FFFFFF" stop-opacity="0.9019608" />
      <stop offset="98.73%" stop-color="#FDFDFD" stop-opacity="0" />
    </radialGradient>
    <radialGradient gradientUnits="objectBoundingBox" cx="49.99036%" cy="49.99125%" fx="49.99036%" fy="49.99125%" r="81.4398%" gradientTransform="translate(0.4999036,0.4999124),scale(0.7777778,1),rotate(-142.1263),scale(1,0),translate(-0.4999036,-0.4999124)" id="gradient_47">
      <stop offset="59.8%" stop-color="#FFFFFF" stop-opacity="0.9019608" />
      <stop offset="98.73%" stop-color="#FDFDFD" stop-opacity="0" />
    </radialGradient>
    <radialGradient gradientUnits="objectBoundingBox" cx="49.98621%" cy="49.99318%" fx="49.98621%" fy="49.99318%" r="83.33334%" gradientTransform="translate(0.499862,0.4999318),scale(1,0.7499999),rotate(-126.8706),scale(1,0),translate(-0.499862,-0.4999318)" id="gradient_48">
      <stop offset="59.8%" stop-color="#FFFFFF" stop-opacity="0.9019608" />
      <stop offset="98.73%" stop-color="#FDFDFD" stop-opacity="0" />
    </radialGradient>
    <radialGradient gradientUnits="objectBoundingBox" cx="50.00782%" cy="49.97902%" fx="50.00782%" fy="49.97902%" r="83.33108%" gradientTransform="translate(0.5000782,0.4997902),scale(1,0.7500001),rotate(-126.8673),scale(1,0),translate(-0.5000782,-0.4997902)" id="gradient_49">
      <stop offset="59.8%" stop-color="#FFFFFF" stop-opacity="0.9019608" />
      <stop offset="98.73%" stop-color="#FDFDFD" stop-opacity="0" />
    </radialGradient>
    <radialGradient gradientUnits="objectBoundingBox" cx="50.01118%" cy="50.02136%" fx="50.01118%" fy="50.02136%" r="123.1051%" gradientTransform="translate(0.5001118,0.5002136),scale(0.4444445,1),rotate(-156.0397),scale(1,0),translate(-0.5001118,-0.5002136)" id="gradient_50">
      <stop offset="59.8%" stop-color="#FFFFFF" stop-opacity="0.9019608" />
      <stop offset="98.73%" stop-color="#FDFDFD" stop-opacity="0" />
    </radialGradient>
    <radialGradient gradientUnits="objectBoundingBox" cx="50.00345%" cy="50.01123%" fx="50.00345%" fy="50.01123%" r="76.82616%" gradientTransform="translate(0.5000345,0.5001124),scale(0.8571428,1),rotate(-139.401),scale(1,0),translate(-0.5000345,-0.5001124)" id="gradient_51">
      <stop offset="59.8%" stop-color="#FFFFFF" stop-opacity="0.9019608" />
      <stop offset="98.73%" stop-color="#FDFDFD" stop-opacity="0" />
    </radialGradient>
    <radialGradient gradientUnits="objectBoundingBox" cx="49.99661%" cy="50.11323%" fx="49.99661%" fy="50.11323%" r="304.1238%" gradientTransform="translate(0.4999661,0.5011323),scale(0.1666667,1),rotate(-170.5519),scale(1,0),translate(-0.4999661,-0.5011323)" id="gradient_52">
      <stop offset="59.8%" stop-color="#FFFFFF" stop-opacity="0.9019608" />
      <stop offset="98.73%" stop-color="#FDFDFD" stop-opacity="0" />
    </radialGradient>
    <radialGradient gradientUnits="objectBoundingBox" cx="49.98285%" cy="50.08727%" fx="49.98285%" fy="50.08727%" r="218.2004%" gradientTransform="translate(0.4998285,0.5008727),scale(0.2352941,1),rotate(-166.8802),scale(1,0),translate(-0.4998285,-0.5008727)" id="gradient_53">
      <stop offset="59.8%" stop-color="#FFFFFF" stop-opacity="0.9019608" />
      <stop offset="98.73%" stop-color="#FDFDFD" stop-opacity="0" />
    </radialGradient>
    <radialGradient gradientUnits="objectBoundingBox" cx="50.00907%" cy="49.34062%" fx="50.00907%" fy="49.34062%" r="885.7427%" gradientTransform="translate(0.5000907,0.4934062),scale(0.05653022,1),rotate(-176.8882),scale(1,0),translate(-0.5000907,-0.4934062)" id="gradient_54">
      <stop offset="59.8%" stop-color="#FFFFFF" stop-opacity="0.9019608" />
      <stop offset="98.73%" stop-color="#FDFDFD" stop-opacity="0" />
    </radialGradient>
    <radialGradient gradientUnits="objectBoundingBox" cx="50.00179%" cy="50.05767%" fx="50.00179%" fy="50.05767%" r="452.7505%" gradientTransform="translate(0.5000179,0.5005767),scale(0.1111111,1),rotate(-173.6918),scale(1,0),translate(-0.5000179,-0.5005767)" id="gradient_55">
      <stop offset="59.8%" stop-color="#FFFFFF" stop-opacity="0.9019608" />
      <stop offset="98.73%" stop-color="#FDFDFD" stop-opacity="0" />
    </radialGradient>
    <radialGradient gradientUnits="objectBoundingBox" cx="50.0158%" cy="50.39774%" fx="50.0158%" fy="50.39774%" r="885.8147%" gradientTransform="translate(0.500158,0.5039774),scale(0.05653022,1),rotate(176.8223),scale(1,0),translate(-0.500158,-0.5039774)" id="gradient_56">
      <stop offset="59.8%" stop-color="#FFFFFF" stop-opacity="0.9019608" />
      <stop offset="98.73%" stop-color="#FDFDFD" stop-opacity="0" />
    </radialGradient>
    <radialGradient gradientUnits="objectBoundingBox" cx="50.01847%" cy="49.0333%" fx="50.01847%" fy="49.0333%" r="885.507%" gradientTransform="translate(0.5001847,0.490333),scale(0.05653022,1),rotate(-177.2293),scale(1,0),translate(-0.5001847,-0.490333)" id="gradient_57">
      <stop offset="59.8%" stop-color="#FFFFFF" stop-opacity="0.9019608" />
      <stop offset="98.73%" stop-color="#FDFDFD" stop-opacity="0" />
    </radialGradient>
    <radialGradient gradientUnits="objectBoundingBox" cx="50.04062%" cy="50.01034%" fx="50.04062%" fy="50.01034%" r="158.0671%" gradientTransform="translate(0.5004062,0.5001034),scale(1,0.3333333),rotate(-71.60864),scale(1,0),translate(-0.5004062,-0.5001034)" id="gradient_58">
      <stop offset="59.8%" stop-color="#FFFFFF" stop-opacity="0.9019608" />
      <stop offset="98.73%" stop-color="#FDFDFD" stop-opacity="0" />
    </radialGradient>
  </defs>
  <g id="luchi_serdca10_04">
    <g id="Group">
      <path d="M29.384 49.1548C28.7728 49.5553 28.3652 50.168 27.8479 50.6666C27.8058 50.7077 27.7706 50.7558 27.7285 50.7969C27.0557 51.4622 26.8968 51.4605 26.2301 50.7808C25.6768 50.2171 25.6681 50.21 26.1537 49.5936C27.1198 48.3672 28.0938 47.147 29.0714 45.9295C29.1926 45.7788 29.2681 45.6664 29.1495 45.4693C28.7596 44.8217 28.8623 44.2313 29.3779 43.6943C29.4833 43.5846 29.644 43.4258 29.4798 43.2876C29.3331 43.1636 29.1917 43.3286 29.0687 43.4356C28.4381 43.9878 27.8075 44.539 27.1717 45.0849C27.0276 45.2088 26.8722 45.3221 26.7123 45.4247C25.8955 45.9474 25.5223 45.8644 24.9531 45.0643C24.7239 44.7423 24.7055 44.4418 24.9681 44.1376C25.1297 43.9503 25.2957 43.7657 25.4783 43.5587C24.774 43.4455 24.3489 43.0013 24.0002 42.4447C23.8939 42.2752 23.9115 42.1727 24.0345 42.0219C25.726 39.9597 27.4395 37.9181 29.2681 35.9781C30.2474 34.9399 31.2346 33.9106 32.2165 32.875C32.2911 32.7957 32.4141 32.7377 32.3666 32.5602C32.1928 32.5477 32.0812 32.6753 31.9697 32.7716C28.1518 36.0611 24.2602 39.2658 20.7392 42.8951C19.8969 43.7639 19.7107 43.7336 18.8957 42.8282C18.6146 42.5161 18.5707 42.2966 18.9045 41.9818C22.1374 38.9322 25.1147 35.6258 28.1992 32.4264C29.9066 30.655 31.679 28.9576 33.5497 27.3664C33.6595 27.2736 33.7912 27.1987 33.8325 27.0221C33.6683 26.9543 33.5918 27.0872 33.4961 27.1523C31.0888 28.7899 28.9238 30.738 26.7062 32.6191C25.0129 34.056 23.4039 35.5874 21.7764 37.0984C21.6473 37.2179 21.5129 37.3348 21.3689 37.4338C20.5152 38.0216 19.6835 37.721 19.3796 36.7175C19.2848 36.4036 19.3761 36.1396 19.6009 35.9085C22.0531 33.387 24.4718 30.8316 27.1866 28.591C27.8655 28.03 28.5365 27.4583 29.2066 26.8865C29.3015 26.8063 29.435 26.7519 29.4552 26.569C29.2295 26.5316 29.1109 26.7171 28.9844 26.8214C26.9047 28.5482 24.7678 30.2046 22.7741 32.0348C21.7562 32.9696 20.7269 33.8901 19.6686 34.7767C19.5913 34.8409 19.4938 34.9426 19.4147 34.9337C18.8764 34.8748 18.6963 34.386 18.4074 34.0292C18.2027 33.7768 18.2739 33.5458 18.4522 33.3059C19.1776 32.3319 20.0664 31.5122 20.8867 30.6282C23.5347 27.7749 26.4304 25.1927 29.3761 22.6659C29.6036 22.4705 29.8592 22.2913 30.0348 21.9336C29.572 22.0906 29.2453 22.3528 28.9256 22.6008C25.9438 24.9127 22.9357 27.1934 20.0357 29.6096C18.0051 31.3017 16.0536 33.0927 14.0696 34.8427C13.8368 35.0478 13.6102 35.3324 13.2747 35.1691C12.8409 34.9586 12.4026 34.6937 12.2498 34.1942C12.1611 33.9052 12.4456 33.7215 12.6336 33.544C13.4996 32.7261 14.3691 31.9109 15.2447 31.1028C17.5783 28.9478 19.8811 26.7554 22.2612 24.6549C24.9048 22.3216 27.5476 19.9847 30.3264 17.8146C31.7729 16.6854 33.2063 15.5375 34.6431 14.3967C34.7845 14.2843 34.9602 14.1897 34.9725 13.8892C34.6686 14.08 34.4148 14.2352 34.1645 14.3976C31.8959 15.863 29.7942 17.564 27.6328 19.1793C25.7515 20.585 23.8711 21.9933 22.0241 23.4445C19.8416 25.158 17.6995 26.9231 15.5319 28.6562C13.6849 30.1323 11.8282 31.5942 9.97329 33.0606C9.88195 33.1328 9.77568 33.1854 9.6738 33.2443C8.68311 33.8116 8.31423 33.6733 7.64235 32.5593C7.49392 32.3131 7.71261 32.2792 7.81537 32.1945C8.92551 31.2785 10.0523 30.3812 11.1546 29.4553C13.5848 27.4155 16.0202 25.3801 18.4232 23.3063C20.0471 21.905 21.5533 20.3656 23.2001 18.9893C24.6545 17.7745 26.1318 16.5873 27.5765 15.3618C29.0661 14.0979 30.5311 12.8037 32.003 11.5184C32.1155 11.4203 32.2832 11.3373 32.2173 11.0456C31.7554 11.3971 31.3118 11.7092 30.8955 12.0544C27.2656 15.0647 23.6094 18.0438 20.0225 21.1076C17.3192 23.4169 14.7063 25.8349 12.0539 28.2057C11.5823 28.6267 11.1107 29.0477 10.6461 29.4767C10.3281 29.7702 10.0567 29.8068 9.70191 29.4848C8.79026 28.6571 8.77972 28.6597 9.55172 27.6831C9.7142 27.477 9.9487 27.2861 9.86351 26.9624C9.86351 26.9624 9.86966 26.974 9.86966 26.974C9.50342 27.2335 9.14947 27.5154 8.76654 27.7464C8.23255 28.0684 8.02528 28.0273 7.57121 27.6019C6.96169 27.0301 6.96432 27.0319 7.42893 26.3639C7.67046 26.016 7.95853 25.7003 8.14648 25.3141C8.17195 25.2427 8.11399 25.2507 8.07622 25.24C7.8628 25.3301 7.65026 25.4247 7.4342 25.5103C6.76408 25.7761 5.94377 25.3408 5.77338 24.6335C5.73035 24.456 5.8656 24.365 5.95431 24.2589C6.38642 23.7451 6.82644 23.2367 7.26294 22.7265C7.29368 22.6543 7.2199 22.6668 7.19443 22.6391C6.33285 23.1154 5.59773 23.7737 4.8108 24.357C4.17844 24.8253 4.18898 24.8449 3.62513 24.274C3.39063 24.0368 2.98223 23.8165 2.99452 23.5355C3.00506 23.3 3.41083 23.0824 3.64445 22.8594C5.42647 21.1496 7.20936 19.4415 8.98787 17.7281C9.06691 17.6514 9.27858 17.58 9.14244 17.4328C9.01597 17.2964 8.91673 17.5006 8.8289 17.5666C6.95993 18.983 5.10238 20.4164 3.22815 21.8266C2.5993 22.3002 1.90107 22.1441 1.48301 21.5188C1.24237 21.1594 1.28101 20.8793 1.59016 20.585C2.43067 19.784 3.25713 18.9688 4.08885 18.1571C4.18195 18.0661 4.29701 17.9894 4.32335 17.8458C4.29437 17.8199 4.29525 17.7504 4.2285 17.7754C3.62513 18.1625 3.09113 18.6495 2.46493 19.0062C1.80798 19.38 0.92531 19.0187 0.73209 18.2784C0.668854 18.0358 0.795326 17.869 0.939363 17.7281C1.51727 17.1626 2.10483 16.6069 2.69328 16.053C3.95711 14.864 5.22534 13.6804 6.4883 12.4897C6.59369 12.3898 6.67362 12.2623 6.76496 12.1472C6.74388 12.1178 6.75705 12.0491 6.68591 12.0767C5.52571 12.875 4.45246 13.7893 3.33003 14.6393C2.75651 15.0737 2.20935 15.5446 1.62003 15.954C1.04476 16.3536 0.415033 16.1529 0.112029 15.5526C-0.0952441 15.1414 -0.00917327 14.831 0.322814 14.5367C2.14787 12.9169 3.96063 11.2829 5.79007 9.66759C7.50798 8.15129 9.24081 6.65193 10.964 5.14277C11.0571 5.0616 11.2046 5.00898 11.1774 4.81364C10.8358 4.79759 10.5758 5.00452 10.3114 5.16507C8.34409 6.36116 6.4883 7.72851 4.58947 9.02985C3.91408 9.49277 3.39853 9.53023 2.88913 9.16186C2.31562 8.74711 2.24711 8.1941 2.7609 7.70532C3.27118 7.2201 3.83064 6.7884 4.362 6.32638C5.52747 5.31402 6.68855 4.2981 7.85138 3.28217C8.09642 3.069 8.35902 2.88258 8.6471 2.73452C9.1767 2.46248 9.43403 2.47943 9.78973 2.9584C10.0769 3.3455 10.3185 3.34996 10.7189 3.13857C11.8203 2.5597 12.9735 2.095 14.1346 1.64814C14.6167 1.46261 15.0409 1.49383 15.4853 1.68827C16.2758 2.03345 16.368 2.67209 15.704 3.21528C15.3062 3.54084 14.9057 3.86283 14.5078 4.1875C14.3647 4.30434 14.2259 4.42475 14.2435 4.70036C14.8179 4.37659 15.3922 4.05281 15.9666 3.72815C16.1836 3.60595 16.3917 3.46591 16.6157 3.35888C16.9907 3.1796 17.3736 3.14125 17.7443 3.38207C18.4522 3.84231 18.4627 4.40513 17.7706 4.88321C16.0149 6.09358 14.4226 7.51087 12.8128 8.90676C12.7399 8.97009 12.5949 9.03431 12.6687 9.14224C12.768 9.28762 12.8716 9.14224 12.9603 9.08248C14.557 8.01571 16.1511 6.94449 17.7504 5.8813C18.5918 5.32205 19.4341 4.76191 20.293 4.23031C20.6636 4.00019 21.0597 3.78791 21.4998 4.1536C22.2033 4.73782 22.2235 5.05625 21.4954 5.59855C19.1987 7.3093 17.0021 9.14848 14.7792 10.9547C14.6062 11.0956 14.3576 11.1821 14.3199 11.4559C14.2891 11.53 14.3655 11.5121 14.3893 11.5389C16.974 9.8665 19.4929 8.0951 21.9898 6.2907C22.6969 5.77961 23.374 5.94908 23.8158 6.7108C23.9405 6.92487 23.9256 7.06312 23.7244 7.2308C21.7044 8.91301 19.6923 10.6041 17.6793 12.2944C17.2928 12.619 16.9108 12.9499 16.4804 13.3183C16.7483 13.4075 16.8519 13.2612 16.9687 13.1774C19.7353 11.1964 22.501 9.21538 25.2605 7.22545C25.4801 7.06669 25.6479 7.02744 25.8762 7.1978C26.2363 7.46539 26.736 7.6411 26.7132 8.18518C26.7009 8.47506 26.3505 8.62491 26.1485 8.83095C25.9851 8.99685 25.7822 9.12172 25.5539 9.29744C25.8472 9.49366 26.1221 9.66759 26.3882 9.85579C27.0215 10.3044 27.0575 10.7326 26.4936 11.2633C26.0879 11.645 25.6645 12.008 25.2447 12.3729C25.1068 12.4924 25.1095 12.5735 25.2632 12.6752C25.6426 12.925 26.0176 13.181 26.3882 13.4441C26.5138 13.5333 26.6052 13.5556 26.7255 13.4298C27.3394 12.7903 28.122 12.3559 28.7552 11.7405C29.4095 11.1054 30.1007 10.5158 30.8367 9.97977C30.9333 9.90931 31.0246 9.83706 31.0501 9.71041C31.094 9.56591 31.2556 9.54272 31.3944 9.39109C31.1959 9.49277 31.0914 9.62032 30.9289 9.6221C30.1209 9.83706 30.1209 9.83706 29.6124 9.11102C29.1891 8.50628 29.1926 8.51163 29.7766 8.07458C30.647 7.42436 31.5042 6.75629 32.3842 6.11944C32.6064 5.95889 32.5792 5.85989 32.4334 5.68418C32.2367 5.44603 32.0786 5.1722 31.8687 4.94832C31.6614 4.72712 31.7255 4.57995 31.9064 4.39621C32.083 4.21604 32.2665 4.05995 32.4852 3.93151C34.7898 2.57576 37.2507 1.56073 39.6915 0.499314C40.4371 0.174646 40.9878 0.310222 41.5191 0.915851C42.0698 1.54467 42.1014 1.52772 42.8357 1.15757C43.6727 0.735678 44.5167 0.333412 45.4152 0.0586939C46.0923 -0.148237 46.9082 0.20854 47.2033 0.868578C47.3043 1.09602 47.2657 1.29582 47.1173 1.48937C46.8889 1.78639 46.5885 1.99599 46.2961 2.21987C45.3291 2.96018 44.3674 3.70852 43.4048 4.45597C43.2678 4.56211 43.1036 4.65131 43.1009 4.88946C43.4944 4.86537 43.815 4.66201 44.1373 4.47827C45.0665 3.94935 45.9843 3.39991 46.9161 2.87634C47.7057 2.43305 48.1159 2.54186 48.6622 3.29645C49.0152 3.78434 49.0152 3.78523 49.5589 3.48821C49.9444 3.27771 50.3265 3.06008 50.7147 2.85583C51.0133 2.69884 51.2671 2.77466 51.499 3.01905C52.3676 3.93508 52.3711 4.11346 51.2768 4.74853C48.2327 6.51547 45.3572 8.5482 42.4642 10.547C40.4512 11.9376 38.5506 13.4949 36.5982 14.9764C36.3646 15.1539 36.1204 15.3172 35.8877 15.4955C35.8139 15.5526 35.6593 15.6097 35.7304 15.7212C35.8235 15.8684 35.9307 15.7257 36.0211 15.6686C37.4097 14.7936 38.7912 13.9079 40.1868 13.0445C43.5638 10.9564 46.9161 8.8256 50.3616 6.85262C50.8543 6.56988 51.2979 6.19883 51.7651 5.8697C52.4168 5.41124 52.545 5.41659 53.1334 5.925C53.7588 6.46552 53.7333 6.90792 52.9964 7.31911C50.5083 8.70965 48.2327 10.4249 45.9096 12.0678C45.0964 12.6422 44.2479 13.1676 43.5049 13.841C43.5401 13.8455 43.4944 13.9436 43.5708 13.899C44.0784 13.8009 44.4394 13.4334 44.8469 13.1604C47.5889 11.3248 50.4082 9.62389 53.3232 8.08707C53.9906 7.73475 54.6318 7.80789 55.063 8.25386C55.5048 8.71054 55.4556 9.25105 54.9278 9.60159C53.4742 10.564 52.0101 11.5086 50.5662 12.4843C49.9971 12.8688 49.4702 13.3183 48.9239 13.7384C48.9458 13.7848 48.9441 13.8579 49.0284 13.8294C49.6318 13.6581 50.1016 13.2398 50.6137 12.9107C52.0576 11.9813 53.5506 11.1429 55.0727 10.3553C55.6163 10.0743 56.3989 10.2928 56.7625 10.7932C57.0532 11.1937 56.9241 11.6834 56.4481 12.0027C55.1702 12.859 53.8747 13.6903 52.6188 14.5795C48.2722 17.6567 43.9748 20.8035 39.8935 24.2419C39.2304 24.8003 38.5497 25.3372 37.8743 25.8804C37.7364 25.9919 37.5897 26.09 37.6099 26.3505C38.1914 26.0124 38.7122 25.6289 39.2233 25.232C42.6741 22.5553 46.311 20.1649 50.0665 17.9537C51.4164 17.159 52.7154 16.2751 53.9801 15.3448C54.8443 14.7097 55.3616 14.6901 56.0072 15.3091C56.4437 15.7283 56.4305 16.1841 55.9343 16.5347C55.1069 17.118 54.2603 17.6728 53.425 18.2436C49.3929 21.0024 45.416 23.837 41.6737 26.9963C41.3593 27.2612 41.0343 27.5136 40.719 27.7776C40.6259 27.8552 40.4837 27.9087 40.5144 28.1139C41.2636 27.7669 41.8397 27.1996 42.4729 26.7198C43.8176 25.7003 45.1491 24.6611 46.4946 23.6434C47.1322 23.1609 47.3649 23.1787 48.0113 23.6666C48.6112 24.1188 48.6103 24.118 49.2216 23.6747C50.0885 23.0467 50.958 22.4215 51.8257 21.7944C52.1902 21.5313 52.5687 21.402 53.0131 21.5938C53.7842 21.9273 53.9336 22.7238 53.3091 23.2804C52.5626 23.9449 51.802 24.5934 51.0493 25.2507C48.4803 27.4931 45.9175 29.7417 43.3416 31.9751C42.1533 33.0053 41.0159 34.0917 39.8627 35.1602C39.7881 35.2298 39.6625 35.294 39.6967 35.3984C39.7327 35.5098 39.8689 35.5455 39.9839 35.5767C40.2509 35.6499 40.4354 35.4902 40.6066 35.3315C42.927 33.1863 45.2483 31.0412 47.5608 28.8863C48.0763 28.4055 48.5682 27.898 49.0574 27.3896C49.6968 26.7242 50.7972 26.9748 51.0721 27.8605C51.1644 28.1585 51.1134 28.4635 50.8447 28.6062C50.2799 28.9059 49.976 29.4232 49.6704 29.9388C49.3252 30.5212 48.858 30.9716 48.3433 31.3971C45.0858 34.0899 42.0654 37.027 39.4087 40.3424C37.7505 42.4117 36.0097 44.4132 34.3876 46.5111C32.7408 48.6401 31.1072 50.7906 30.0665 53.3264C29.774 54.0391 29.2277 54.139 28.6155 53.685C27.5871 52.9223 27.465 51.8012 28.3775 50.9173C28.8702 50.4392 29.1302 49.8371 29.4692 49.2734C29.4525 49.2056 29.4859 49.1494 29.5079 49.0915C29.5333 49.0388 29.5149 49.1218 29.5307 49.0647C29.5202 49.0736 29.5131 49.0861 29.5035 49.0959C29.4648 49.1182 29.4806 49.2511 29.384 49.1548Z" transform="translate(0.04869561 0.07420552)" id="Shape" fill="#FE0202" stroke="none" />
      <path d="M0 0.454891C0.190586 0.304152 0.380293 0.152522 0.573513 0C0.585809 0.355885 0.585809 0.355885 0.121202 0.544085C0.0808012 0.514651 0.0404006 0.485217 0 0.454891Z" transform="translate(30.97937 9.24231)" id="Shape" fill="#FEDADA" stroke="none" />
      <path d="M1.32215 0C0.972599 0.330019 0.624802 0.661821 0.273493 0.990056C0.21377 1.04536 0.151413 1.14347 0.0548025 1.05874C-0.0259987 0.987381 -0.0137029 0.894618 0.0670983 0.830399C0.461443 0.519111 0.816266 0.150738 1.32215 0Z" transform="translate(33.06492 9.554489)" id="Shape" fill="#FEE0E0" stroke="none" />
      <path d="M0.968298 0.0838426C0.725016 0.293449 0.48349 0.503948 0.23933 0.71177C0.171703 0.769746 0.088267 0.832183 0.018005 0.730501C-0.0329349 0.65647 0.0346923 0.595818 0.0909018 0.547653C0.332427 0.338046 0.555509 0.0990056 0.872566 0C0.906819 0.0258663 0.930532 0.0633279 0.968298 0.0838426Z" transform="translate(13.26414 4.709457)" id="Shape" fill="#FED6D6" stroke="none" />
      <path d="M0.742142 0C0.582296 0.362129 0.259091 0.420105 0 0.569059C0.126471 0.238149 0.36624 0.062436 0.742142 0Z" transform="translate(35.50336 8.091703)" id="Shape" fill="#FEC0C0" stroke="none" />
      <path d="M0.867735 0.0710752C0.701741 0.448367 0.434746 0.698111 0 0.740032C0.267874 0.494748 0.535747 0.248572 0.804499 0.00328751C0.860709 -0.00919968 0.882666 0.0139908 0.867735 0.0710752Z" transform="translate(34.15433 26.00844)" id="Shape" fill="#FEDEDE" stroke="none" />
      <path d="M0 0.374507C0.0237134 0.342397 0.0412789 0.290664 0.0720185 0.279961C0.288952 0.202362 0.433867 -0.0473819 0.702619 0.00791854C0.720185 0.0114863 0.745655 0.0730304 0.739507 0.079274C0.538382 0.279069 0.2951 0.391454 0.0439137 0.486C0.0289831 0.448538 0.0149307 0.411077 0 0.374507Z" transform="translate(47.28014 14.54591)" id="Shape" fill="#FEDADA" stroke="none" />
      <path d="M0 0.432139C0.162481 0.186855 0.281926 -0.0325633 0.645532 0.00400636C0.439137 0.215397 0.307396 0.416084 0 0.432139Z" transform="translate(38.41396 29.48629)" id="Shape" fill="#FEC9C9" stroke="none" />
      <path d="M0.0980453 0.270259C0.0726062 0.248264 0.00476857 0.218939 0.00113441 0.18106C-0.0121908 0.0552043 0.0944111 0.0209912 0.187688 0.000218877C0.20707 -0.00466872 0.270062 0.0735328 0.268851 0.111412C0.264005 0.192057 0.220395 0.260483 0.0980453 0.270259Z" transform="translate(16.42466 13.39949)" id="Shape" fill="#FEFEFE" stroke="none" />
      <path d="M0.268868 0.152057C0.186142 0.296661 0.0643251 0.308587 0.00614403 0.187836C-0.0302191 0.113298 0.104325 0.0641026 0.160687 0C0.197051 0.0506858 0.233414 0.101372 0.268868 0.152057Z" transform="translate(48.81821 13.80995)" id="Shape" fill="#FEFEFE" stroke="none" />
      <path d="M0 0.139977C0.0751748 0.0896008 0.132451 -0.0650007 0.232684 0.0305395C0.313228 0.108709 0.250583 0.223357 0.130661 0.270259C0.0877039 0.226831 0.042957 0.183404 0 0.139977Z" transform="translate(34.95795 25.94074)" id="Shape" fill="#FEDEDE" stroke="none" />
      <path d="M0.268868 0.0971525C0.217065 0.196646 0.139361 0.345301 0.0334 0.225909C-0.0784473 0.098323 0.120523 0.0678897 0.192341 0C0.239434 0.0152167 0.265336 0.047991 0.268868 0.0971525Z" transform="translate(29.47456 26.4568)" id="Shape" fill="#FEFEFE" stroke="none" />
      <path d="M0 0.124043C0.047372 0.0604222 0.0845013 -0.01436 0.19717 0.00238228C0.240701 0.00684689 0.265027 0.0269376 0.268868 0.0648868C0.220216 0.132972 0.171563 0.202173 0.122911 0.270259C0.0819407 0.222264 0.0409704 0.173153 0 0.124043Z" transform="translate(29.43273 49.12986)" id="Shape" fill="#FEFEFE" stroke="none" />
      <path d="M0.205914 0.205664C0.137906 0.146631 0.0680083 0.0875977 0 0.0285645C0.0680083 0.019043 0.134127 0.00952149 0.202136 0C0.202136 0.0685547 0.204025 0.137109 0.205914 0.205664Z" transform="translate(14.1367 4.69697)" id="Shape" fill="#FEFEFE" stroke="none" />
      <path d="M0.222916 0.1771C0.14924 0.192334 0.0736756 0.209473 0 0.226611C0.0245585 0.15044 0.0491171 0.0761719 0.0736756 0C0.122793 0.0590332 0.173799 0.118066 0.222916 0.1771Z" transform="translate(14.33695 11.53193)" id="Shape" fill="#FEFEFE" stroke="none" />
      <path d="M0 0.125052C0.06423 0.0809387 0.158686 -0.0146404 0.188912 0.00190215C0.347598 0.0901289 0.230472 0.182032 0.170021 0.270259C0.113347 0.222469 0.0566736 0.17468 0 0.125052Z" transform="translate(6.736363 12.09204)" id="Shape" fill="#FEFEFE" stroke="none" />
      <path d="M0.177577 0.121875C0.119014 0.148535 0.0585627 0.175195 0 0.20376C0.0113347 0.135205 0.0245585 0.0666504 0.0358932 0C0.0868994 0.0342774 0.134127 0.0761719 0.177577 0.121875Z" transform="translate(43.53781 13.91431)" id="Shape" fill="#FEFEFE" stroke="none" />
      <path d="M0 0.117888C0.0604518 0.0759934 0.143573 -0.0135086 0.179466 0.00172575C0.323039 0.0626633 0.249364 0.171208 0.202136 0.266423C0.136017 0.218816 0.0680083 0.169304 0 0.117888Z" transform="translate(4.278952 17.79612)" id="Shape" fill="#FEFEFE" stroke="none" />
      <path d="M0 0.081866C0.0926755 0.0152155 0.194094 -0.064765 0.267535 0.0856746C0.281524 0.112335 0.181854 0.205645 0.134642 0.268487C0.0909269 0.205645 0.0454635 0.142803 0 0.081866Z" transform="translate(7.244884 22.67587)" id="Shape" fill="#FEFEFE" stroke="none" />
      <path d="M0 0.122654C0.0714872 0.0693031 0.14135 -0.0711879 0.233958 0.044406C0.33469 0.168892 0.191716 0.208016 0.128352 0.270259C0.0861096 0.220464 0.0422425 0.172448 0 0.122654Z" transform="translate(8.125793 25.2536)" id="Shape" fill="#FEFEFE" stroke="none" />
      <path d="M0 0.00571289C0.0755647 0.00380859 0.153019 0.0019043 0.228583 0C0.19269 0.0552246 0.158686 0.108545 0.122793 0.16377C0.0812321 0.110449 0.0415606 0.0590332 0 0.00571289Z" transform="translate(29.61804 26.45413)" id="Shape" fill="#FEFEFE" stroke="none" />
      <path d="M0.0115194 0.0990235C0.0474127 0.0666504 0.0833059 0.0323731 0.119199 0C0.119199 0.0380859 0.119199 0.0742676 0.119199 0.112354C0.0795277 0.100928 0.0398562 0.0875977 0.000184714 0.0761719C-0.0017044 0.0742676 0.0115194 0.0990235 0.0115194 0.0990235Z" transform="translate(9.913874 27.00356)" id="Shape" fill="#FEFEFE" stroke="none" />
      <path d="M0 0.0480915C0.0759888 0.0328572 0.179116 -0.0223675 0.224348 0.0100056C0.314811 0.076656 0.251487 0.152828 0.175498 0.20234C0.0886536 0.185201 0.0307574 0.133785 0 0.0480915Z" transform="translate(32.49702 32.50484)" id="Shape" fill="#FEFEFE" stroke="none" />
      <path d="M0.268868 0.127603C0.209732 0.194594 0.171374 0.336552 0.0499058 0.23447C-0.0619727 0.138768 0.0387179 0.0638014 0.113836 0C0.164981 0.0414709 0.217723 0.0845368 0.268868 0.127603Z" transform="translate(32.43447 32.52736)" id="Shape" fill="#FEFEFE" stroke="none" />
      <path d="M0 0.131397C0.0340041 0.0875977 0.0680083 0.0437988 0.103902 0C0.196468 0.0780762 0.170021 0.158057 0.105791 0.238037C0.0680083 0.205664 0.0340041 0.169482 0 0.131397Z" transform="translate(29.56798 49.07022)" id="Shape" fill="#FEFEFE" stroke="none" />
    </g>
    <g id="Group" transform="translate(8.844828 9.827586)">
      <path d="M15.1747 3.63359C15.3545 4.7157 15.5807 5.79335 15.8513 6.85668C15.8568 6.87814 15.8623 6.89956 15.8678 6.92096C16.0927 7.7997 16.3066 8.63518 15.8807 9.5414C15.6822 9.96441 15.7347 10.5037 15.6635 10.9893C15.5379 11.8469 15.2219 12.6554 15.018 13.4925C14.823 14.292 14.7812 15.1156 14.7999 15.933C14.8221 16.9096 14.3601 17.5544 13.5766 18.0543C11.5947 19.3171 9.78564 20.8079 8.06556 22.4052C6.54669 23.8146 6.08907 25.5594 6.57964 27.5636C7.60438 31.7516 8.68967 35.9236 9.78564 40.0929C10.1133 41.3413 10.4124 42.5978 10.7356 43.8919L10.3145 43.8919C9.60313 43.8919 8.89183 43.8915 8.18055 43.891C5.9577 43.8897 3.7351 43.8884 1.51199 43.8999C1.14251 43.9017 1.04903 43.7971 1.04013 43.4277C0.92706 38.7255 0.796184 34.0232 0.66887 29.3209C0.635038 28.0796 0.383081 26.8696 0.119549 25.6631C-0.0451583 24.9101 -0.0398164 24.1634 0.136465 23.4086C0.264669 22.8595 0.364384 22.3005 0.431157 21.7407C0.55402 20.7051 1.01431 19.7822 1.34016 18.8127C1.98475 16.8953 3.33268 15.4626 4.56576 13.9414C5.2691 13.0739 6.04456 12.2834 6.83604 11.4999C7.58747 10.7559 7.98009 9.77303 8.44038 8.84116C8.72973 8.25538 9.00306 7.66156 9.27995 7.06953C9.72599 6.11619 10.4026 5.407 11.4051 5.05017C11.5694 4.99198 11.5439 4.8916 11.5154 4.77937C11.5145 4.77604 11.5137 4.77271 11.5128 4.76936C11.3428 4.10936 11.5529 3.5683 12.0301 3.11578C12.1254 3.02545 12.1592 2.92887 12.161 2.80188C12.1708 2.04618 12.4922 1.36114 13.086 0.998945C13.2186 0.91783 13.3422 0.808496 13.4674 0.697653C13.7785 0.422323 14.1001 0.137681 14.5978 0.25309C14.6808 0.27248 14.7078 0.215932 14.7395 0.149533C14.7663 0.0934353 14.7965 0.0303067 14.8666 0C15.0714 0.394391 15.1088 0.813823 15.0946 1.23415C15.067 2.03724 15.0438 2.8448 15.1747 3.63359ZM10.1533 13.0775C10.7258 12.3808 11.333 11.7056 11.8271 10.9553C12.0399 10.6316 12.2019 10.1576 12.0479 9.7301C11.8734 9.24896 11.6384 8.78839 11.4612 8.28579C11.0419 9.21051 10.5344 10.0592 9.99397 10.8918C9.64052 11.4373 9.26392 11.9766 9.08497 12.616C9.07673 12.6449 9.06518 12.674 9.05352 12.7033C9.01605 12.7976 8.97747 12.8947 9.04401 12.997C9.22118 13.2698 9.94411 13.3324 10.1533 13.0775Z" transform="translate(22.1745 0.0733335)" id="Shape" fill="#FFFFFF" fill-rule="evenodd" stroke="none" />
      <path d="M4.78365 6.90877C4.63764 5.80429 4.53615 4.69087 4.33049 3.59713C4.19694 2.88884 3.99751 2.18233 3.69748 1.51607C3.63694 1.38103 3.57461 1.2442 3.5301 1.1029C3.42237 0.763955 3.17397 0.260458 3.3645 0.103954C3.58619 -0.0775911 4.08031 0.0216774 4.44356 0.080702C5.05609 0.180865 5.40331 0.624443 5.64102 1.16908C5.75053 1.41949 5.84223 1.59209 6.22061 1.5268C6.78062 1.43111 7.2053 1.77721 7.51423 2.23331C7.9763 2.91746 8.29949 3.6651 8.4731 4.47445C8.55055 4.83665 8.69924 5.08527 9.0518 5.29543C9.69104 5.6773 10.04 6.34177 10.373 6.99641C11.1182 8.45861 11.5829 10.0308 12.0388 11.5923C12.2729 12.3918 12.6843 12.7137 13.4116 12.9713C14.6839 13.4211 15.8377 14.1205 16.948 14.9057C18.2309 15.8134 19.318 16.9116 20.3418 18.0868C20.6223 18.4087 20.7754 18.7879 20.7549 19.2324C20.7353 19.6634 20.9454 20.0381 21.0941 20.4236C21.5081 21.495 21.6995 22.5905 21.5945 23.746C21.4137 25.7421 21.647 27.7319 21.7441 29.7235C21.8358 31.6114 21.8963 33.5002 21.9809 35.3881C21.9924 35.6501 21.9408 35.7494 21.6506 35.7485C19.1906 35.7369 16.7307 35.7369 14.2708 35.7485C13.9761 35.7503 13.9227 35.6627 13.9708 35.3926C14.5192 32.2714 14.7409 29.1038 15.2715 25.9799C15.5083 24.5866 15.527 23.221 14.7062 21.9734C14.164 21.1498 13.4223 20.5479 12.6317 19.9845C10.7487 18.6412 8.8773 17.2801 7.00409 15.9234C6.74946 15.7392 6.51798 15.5147 6.40669 15.2169C5.8725 13.786 5.12108 12.4669 4.28597 11.2041C3.31731 9.74194 2.70478 8.12056 2.03972 6.51885C1.70496 5.71397 1.13873 5.05754 0.638373 4.36087C0.411344 4.04518 0.181644 3.73933 0.0561106 3.36729C-0.0302495 3.10973 -0.0667522 2.89868 0.327655 3.01851C0.382854 3.03551 0.445176 3.04355 0.502156 3.0364C1.90706 2.85307 2.70656 3.68835 3.33779 4.76689C3.77048 5.50738 4.35631 6.14413 4.68127 6.95348C4.71332 6.93828 4.74804 6.92307 4.78365 6.90877Z" transform="translate(0.02026618 8.451919)" id="Shape" fill="#FFFFFF" stroke="none" />
    </g>
    <path d="M4.91379 9.82759C7.62761 9.82759 9.82759 7.62761 9.82759 4.91379C9.82759 2.19998 7.62761 0 4.91379 0C2.19998 0 0 2.19998 0 4.91379C0 7.62761 2.19998 9.82759 4.91379 9.82759Z" transform="translate(23.58621 15.72414)" id="Oval" fill="#FFFFFF" stroke="none" />
    <path d="M7.86207 16.7069C12.2042 16.7069 15.7241 12.9669 15.7241 8.35345C15.7241 3.73997 12.2042 0 7.86207 0C3.51997 0 0 3.73997 0 8.35345C0 12.9669 3.51997 16.7069 7.86207 16.7069Z" transform="translate(19.65517 11.7931)" id="Oval" fill="url(#gradient_1)" stroke="none" />
    <path d="M30.4613 1.07258C30.2655 -0.305838 23.2878 -0.363387 14.8774 0.944694C6.467 2.25277 -0.192442 4.42956 0.00424714 5.80706C0.200936 7.18457 7.1777 7.24303 15.5881 5.93495C23.9985 4.62778 30.658 2.45008 30.4613 1.07258Z" transform="translate(11.7931 16.7069)" id="Shape" fill="url(#gradient_2)" stroke="none" />
    <path d="M0.557512 0.695229C-1.57669 3.03049 2.60403 10.5518 9.89487 17.495C17.1857 24.4381 24.8255 28.1742 26.9597 25.8389C29.0939 23.5036 24.9132 15.9823 17.6224 9.03916C10.3315 2.09603 2.69172 -1.63914 0.557512 0.695229Z" transform="translate(9.827586 1.965517)" id="Shape" fill="url(#gradient_3)" stroke="none" />
    <path d="M1.0838 1.34073C-1.04004 3.68131 0.0532963 8.27812 3.52614 11.6082C6.99897 14.9383 11.5346 15.7412 13.6576 13.4006C15.7814 11.0601 14.6881 6.46326 11.2152 3.13317C7.74241 -0.19692 3.20765 -0.999838 1.0838 1.34073Z" transform="translate(22.60345 15.72414)" id="Shape" fill="url(#gradient_4)" stroke="none" />
    <path d="M2.0374 0.0097567C0.303283 0.255246 -0.474792 5.06947 0.299844 10.7631C1.07448 16.4567 3.10779 20.8729 4.84191 20.6282C6.57603 20.3828 7.3541 15.5685 6.57947 9.87493C5.80483 4.18132 3.77152 -0.235733 2.0374 0.0097567Z" transform="translate(24.56897 8.844828)" id="Shape" fill="url(#gradient_5)" stroke="none" />
    <path d="M11.319 0.0652502C10.0418 -0.599635 6.57788 3.89211 3.58329 10.098C0.588695 16.3039 -0.803025 21.8733 0.474143 22.5382C1.75131 23.2031 5.21522 18.7113 8.20982 12.5054C11.2044 6.29955 12.5961 0.730136 11.319 0.0652502Z" transform="translate(22.60345 7.862069)" id="Shape" fill="url(#gradient_6)" stroke="none" />
    <path d="M30.4574 9.49906C30.7295 8.52473 24.1343 5.68241 15.726 3.15023C7.31768 0.618048 0.280226 -0.644905 0.00812572 0.328528C-0.263974 1.30286 6.33121 4.14518 14.7395 6.67736C23.1478 9.20954 30.1844 10.4725 30.4574 9.49906Z" transform="translate(12.77586 16.7069)" id="Shape" fill="url(#gradient_7)" stroke="none" />
    <path d="M0.0774806 5.32974e-06C-0.0685127 0.00715006 -0.00228895 5.51306 0.226484 12.297C0.455257 19.0818 0.759285 24.5761 0.905278 24.569C1.05127 24.5618 0.985048 19.0559 0.756275 12.272C0.528254 5.48805 0.224227 -0.00624631 0.0774806 5.32974e-06Z" transform="translate(27.51724 8.844828)" id="Shape" fill="url(#gradient_8)" stroke="none" />
    <path d="M0.0189457 0.000137474C-0.1304 0.0318929 0.619455 5.55733 1.69458 12.3421C2.76971 19.1269 3.76196 24.6006 3.91209 24.5688C4.06143 24.5371 3.31158 19.0116 2.23645 12.2269C1.16132 5.4421 0.169073 -0.0316179 0.0189457 0.000137474Z" transform="translate(26.53448 7.862069)" id="Shape" fill="url(#gradient_9)" stroke="none" />
    <path d="M0.656358 4.34336e-07C0.401733 -0.00178432 0.120859 5.49705 0.0289845 12.2818C-0.0628902 19.0666 0.0709844 24.5672 0.326921 24.569C0.581545 24.5707 0.862419 19.0719 0.954294 12.2872C1.04486 5.50241 0.912294 0.000892813 0.656358 4.34336e-07Z" transform="translate(27.51724 7.862069)" id="Shape" fill="url(#gradient_10)" stroke="none" />
    <path d="M0.0465121 2.45881e-05C-0.118009 0.0143484 0.167783 5.52543 0.685093 12.3095C1.2024 19.0937 1.75448 24.5824 1.91901 24.5689C2.08353 24.5546 1.79773 19.0435 1.28042 12.2594C0.763114 5.4753 0.211034 -0.013404 0.0465121 2.45881e-05Z" transform="translate(26.53448 7.862069)" id="Shape" fill="url(#gradient_11)" stroke="none" />
    <path d="M10.8034 0.00152771C10.6541 -0.0883468 8.1155 3.79851 5.13446 8.68288C2.15342 13.5672 -0.142391 17.5991 0.00688613 17.6881C0.156163 17.778 2.69477 13.8911 5.67581 9.00678C8.65685 4.12241 10.9536 0.0905124 10.8034 0.00152771Z" transform="translate(23.58621 10.81034)" id="Shape" fill="url(#gradient_12)" stroke="none" />
    <path d="M13.7549 0.00302137C13.6317 -0.112397 10.4528 3.09328 6.65578 7.16242C2.8588 11.2316 -0.119575 14.6229 0.00369232 14.7384C0.12696 14.8538 3.30586 11.6481 7.10284 7.57896C10.8998 3.50982 13.8782 0.118439 13.7549 0.00302137Z" transform="translate(22.60345 11.7931)" id="Shape" fill="url(#gradient_13)" stroke="none" />
    <path d="M17.6885 0.00785301C17.6088 -0.144152 13.5839 1.92881 8.70025 4.63823C3.81569 7.34765 -0.0784486 9.66773 0.00120036 9.81973C0.0808493 9.97174 4.10572 7.89878 8.98941 5.18936C13.874 2.47993 17.7681 0.159858 17.6885 0.00785301Z" transform="translate(17.68966 16.7069)" id="Shape" fill="url(#gradient_14)" stroke="none" />
    <path d="M27.4793 0.526664C26.9194 -0.816664 20.3235 0.498411 12.7456 3.46332C5.16762 6.42823 -0.521153 9.92225 0.0379203 11.2664C0.597877 12.6098 7.19371 11.2947 14.7717 8.32978C22.3496 5.36487 28.0384 1.86999 27.4793 0.526664Z" transform="translate(15.72414 13.75862)" id="Shape" fill="url(#gradient_15)" stroke="none" />
    <path d="M16.6965 0.031535C16.4693 -0.30229 12.5496 2.05224 7.94143 5.29194C3.33323 8.53164 -0.216855 11.4277 0.0103226 11.7616C0.2375 12.0954 4.15718 9.74086 8.76539 6.50116C13.3736 3.26147 16.9245 0.36536 16.6965 0.031535Z" transform="translate(18.67241 15.72414)" id="Shape" fill="url(#gradient_16)" stroke="none" />
    <path d="M17.688 0.00645992C17.5955 -0.138137 13.5609 2.16226 8.67723 5.14358C3.79355 8.1249 -0.0909317 10.6593 0.00162009 10.8039C0.0941719 10.9485 4.12871 8.64808 9.01239 5.66676C13.8961 2.68544 17.7815 0.151057 17.688 0.00645992Z" transform="translate(20.63793 14.74138)" id="Shape" fill="url(#gradient_17)" stroke="none" />
    <path d="M14.738 0.00359749C14.6171 -0.122351 11.2199 3.07439 7.15156 7.1428C3.08234 11.2112 -0.11757 14.6118 0.00331534 14.7378C0.124201 14.8637 3.52144 11.667 7.58977 7.59858C11.659 3.53016 14.8598 0.129546 14.738 0.00359749Z" transform="translate(22.60345 12.77586)" id="Shape" fill="url(#gradient_18)" stroke="none" />
    <path d="M17.6605 0.0403126C17.267 -0.395599 13.0012 2.75352 8.13255 7.07284C3.26391 11.3922 -0.364232 15.2479 0.0292015 15.6838C0.422636 16.1197 4.68847 12.9706 9.55711 8.65129C14.4257 4.33196 18.0539 0.476224 17.6605 0.0403126Z" transform="translate(18.67241 13.75862)" id="Shape" fill="url(#gradient_19)" stroke="none" />
    <path d="M17.6897 0.12041C17.6888 -0.0570101 13.7274 -0.0362727 8.84258 0.168797C3.95774 0.373867 -0.000899946 0.684928 1.53465e-07 0.862349C0.000900253 1.03977 3.96224 1.01903 8.84708 0.813961C13.7319 0.608891 17.6906 0.300134 17.6897 0.12041Z" transform="translate(19.65517 19.65517)" id="Shape" fill="url(#gradient_20)" stroke="none" />
    <path d="M17.6896 2.94345C17.7015 2.87819 13.7523 2.16715 8.86722 1.35563C3.98213 0.544116 0.0119082 -0.0604404 2.67393e-05 0.00482426C-0.0118547 0.0700889 3.93735 0.78113 8.82244 1.59264C13.7075 2.40416 17.6777 3.00872 17.6896 2.94345Z" transform="translate(19.65517 18.67241)" id="Shape" fill="url(#gradient_21)" stroke="none" />
    <path d="M2.93456 2.47897e-05C2.82527 -0.0134588 2.08223 5.47527 1.27572 12.2602C0.469223 19.0452 -0.0957696 24.5555 0.0135269 24.5689C0.122823 24.5824 0.865863 19.0937 1.67237 12.3088C2.47887 5.52381 3.04474 0.0135084 2.93456 2.47897e-05Z" transform="translate(26.53448 7.862069)" id="Shape" fill="url(#gradient_22)" stroke="none" />
    <path d="M0.97112 4.34973e-07C0.912796 -0.00178549 0.650337 5.49618 0.385057 12.2809C0.120717 19.0656 -0.0467295 24.5672 0.0115946 24.569C0.0699187 24.5708 0.332377 19.0728 0.597658 12.2881C0.862938 5.50422 1.02944 0.00267932 0.97112 4.34973e-07Z" transform="translate(27.51724 7.862069)" id="Shape" fill="url(#gradient_23)" stroke="none" />
    <path d="M0 0.978763C0.000894002 1.01306 5.50169 0.822756 12.2863 0.553893C19.0709 0.28503 24.5699 0.0382953 24.569 0.00399594C24.5681 -0.0303035 19.0673 0.160003 12.2827 0.428866C5.49811 0.697729 -0.000894002 0.944463 0 0.978763Z" transform="translate(15.72414 19.65517)" id="Shape" fill="url(#gradient_24)" stroke="none" />
    <path d="M0 0.00279931C-0.000894197 0.0315121 5.49842 0.274181 12.2827 0.543711C19.067 0.81324 24.5681 1.00867 24.569 0.979959C24.5699 0.951247 19.0705 0.708577 12.2863 0.439048C5.502 0.169519 0.000894197 -0.0259134 0 0.00279931Z" transform="translate(15.72414 19.65517)" id="Shape" fill="url(#gradient_25)" stroke="none" />
    <path d="M0 0.0538001C0 0.136662 4.83999 0.291693 10.8099 0.398611C16.7798 0.50553 21.6207 0.521567 21.6207 0.438706C21.6207 0.355844 16.7807 0.200813 10.8108 0.0938944C4.84085 -0.0130238 0 -0.0317345 0 0.0538001Z" transform="translate(15.72414 19.65517)" id="Shape" fill="url(#gradient_26)" stroke="none" />
    <path d="M0.0224508 1.09198e-05C-0.0924186 0.00806543 0.244838 5.51556 0.775075 12.3001C1.30531 19.0847 1.8282 24.5779 1.94307 24.569C2.05794 24.56 1.72068 19.0534 1.19044 12.2688C0.660205 5.48424 0.13732 -0.00893854 0.0224508 1.09198e-05Z" transform="translate(27.51724 7.862069)" id="Shape" fill="url(#gradient_27)" stroke="none" />
    <path d="M7.14164e-05 0.000352471C-0.0198841 0.0355896 4.14474 2.70434 9.30107 5.961C14.4574 9.21766 18.6533 11.828 18.6723 11.7928C18.6923 11.7575 14.5277 9.08876 9.37135 5.8321C4.21502 2.57638 0.0200269 -0.0348847 7.14164e-05 0.000352471Z" transform="translate(19.65517 14.74138)" id="Shape" fill="url(#gradient_28)" stroke="none" />
    <path d="M0.000129685 0.000217738C-0.0253083 0.0311765 3.69478 3.35561 8.30783 7.42669C12.9218 11.4969 16.6822 14.7721 16.7068 14.7412C16.7322 14.7102 13.0121 11.3858 8.39906 7.31469C3.78601 3.24361 0.0246905 -0.0307411 0.000129685 0.000217738Z" transform="translate(19.65517 12.77586)" id="Shape" fill="url(#gradient_29)" stroke="none" />
    <path d="M0.000112181 0.000222126C-0.0242274 0.031317 3.91517 3.13637 8.80021 6.93527C13.6852 10.7342 17.6652 13.7895 17.6895 13.7584C17.7139 13.7273 13.7745 10.6222 8.88945 6.82333C4.00442 3.02442 0.0244517 -0.0299844 0.000112181 0.000222126Z" transform="translate(19.65517 12.77586)" id="Shape" fill="url(#gradient_30)" stroke="none" />
    <path d="M0.000176322 0.000158549C-0.0286004 0.0274431 3.46867 3.57003 7.81036 7.91179C12.1521 12.2536 15.6952 15.7521 15.724 15.724C15.7527 15.6967 12.2555 12.1541 7.91378 7.81234C3.57209 3.47057 0.0280538 -0.027126 0.000176322 0.000158549Z" transform="translate(20.63793 11.7931)" id="Shape" fill="url(#gradient_31)" stroke="none" />
    <path d="M17.6896 0.000274099C17.6681 -0.0320639 13.6899 2.80111 8.80567 6.32864C3.92057 9.85618 -0.0214251 12.7432 8.7634e-05 12.7756C0.0216004 12.8079 3.99973 9.97476 8.88398 6.44722C13.7691 2.91968 17.7111 0.0335104 17.6896 0.000274099Z" transform="translate(20.63793 12.77586)" id="Shape" fill="url(#gradient_32)" stroke="none" />
    <path d="M20.6379 0.000673542C20.6248 -0.0391132 15.9948 1.68877 10.2953 3.85904C4.59585 6.02931 -0.0131004 7.82161 2.79773e-05 7.8614C0.0131564 7.90118 4.64311 6.1733 10.3426 4.00303C16.0421 1.83276 20.651 0.0404603 20.6379 0.000673542Z" transform="translate(19.65517 15.72414)" id="Shape" fill="url(#gradient_33)" stroke="none" />
    <path d="M21.6207 0.000517684C21.6069 -0.0364668 16.7561 1.91288 10.7854 4.35476C4.81482 6.79663 -0.0137101 8.80733 2.92485e-05 8.84431C0.0137686 8.88129 4.86463 6.93194 10.8352 4.49007C16.8059 2.04729 21.6344 0.0375021 21.6207 0.000517684Z" transform="translate(19.65517 14.74138)" id="Shape" fill="url(#gradient_34)" stroke="none" />
    <path d="M23.5862 0.000877233C23.5763 -0.0384458 18.289 1.24915 11.7756 2.87695C5.26216 4.50474 -0.00987399 5.85544 1.38861e-05 5.89567C0.00990176 5.935 5.29722 4.6474 11.8106 3.01961C18.3231 1.3909 23.5952 0.0402003 23.5862 0.000877233Z" transform="translate(18.67241 16.7069)" id="Shape" fill="url(#gradient_35)" stroke="none" />
    <path d="M20.6379 0.00144501C20.6309 -0.0397862 16.0055 0.80639 10.3067 1.89152C4.60797 2.97665 -0.00698441 3.88936 7.93536e-06 3.92965C0.00700028 3.96995 4.63244 3.12471 10.3312 2.03958C16.03 0.954447 20.6449 0.0426762 20.6379 0.00144501Z" transform="translate(18.67241 18.67241)" id="Shape" fill="url(#gradient_36)" stroke="none" />
    <path d="M21.6207 0.000817916C21.6109 -0.0338429 16.7629 1.03742 10.793 2.39402C4.82304 3.75063 -0.00979523 4.87831 1.49088e-05 4.91297C0.00982505 4.94764 4.85782 3.87638 10.8277 2.51977C16.7977 1.16316 21.6305 0.0354787 21.6207 0.000817916Z" transform="translate(17.68966 17.68966)" id="Shape" fill="url(#gradient_37)" stroke="none" />
    <path d="M21.6207 0.000817916C21.6109 -0.0338429 16.7629 1.03742 10.793 2.39402C4.82214 3.75063 -0.00979523 4.87831 1.49115e-05 4.91297C0.00982505 4.94764 4.85782 3.87638 10.8277 2.51977C16.7985 1.16397 21.6305 0.0354787 21.6207 0.000817916Z" transform="translate(17.68966 17.68966)" id="Shape" fill="url(#gradient_38)" stroke="none" />
    <path d="M21.6207 0.0014922C21.6145 -0.040407 16.7695 0.805195 10.7985 1.88981C4.82837 2.97443 -0.00613266 3.88764 5.83919e-06 3.92954C0.00614434 3.97144 4.85118 3.12584 10.8222 2.04122C16.7932 0.956604 21.6277 0.0433914 21.6207 0.0014922Z" transform="translate(17.68966 18.67241)" id="Shape" fill="url(#gradient_39)" stroke="none" />
    <path d="M0.000154688 0.000180436C-0.026798 0.0275166 3.47183 3.34972 7.81382 7.42024C12.1558 11.4908 15.6979 14.7685 15.724 14.7412C15.7509 14.7139 12.2523 11.3917 7.91032 7.32115C3.56834 3.25062 0.0262379 -0.02801 0.000154688 0.000180436Z" transform="translate(19.65517 12.77586)" id="Shape" fill="url(#gradient_40)" stroke="none" />
    <path d="M0.000154688 0.000169749C-0.026798 0.0275059 3.47183 3.34971 7.81382 7.42024C12.1558 11.4908 15.6979 14.7685 15.724 14.7412C15.7501 14.7139 12.2523 11.3917 7.91033 7.32114C3.56834 3.25061 0.0271074 -0.0271664 0.000154688 0.000169749Z" transform="translate(16.7069 8.844828)" id="Shape" fill="url(#gradient_41)" stroke="none" />
    <path d="M10.8103 0.491379C16.7807 0.491379 21.6207 0.38138 21.6207 0.24569C21.6207 0.109999 16.7807 0 10.8103 0C4.83996 0 0 0.109999 0 0.24569C0 0.38138 4.83996 0.491379 10.8103 0.491379Z" transform="translate(16.7069 19.65517)" id="Oval" fill="url(#gradient_42)" stroke="none" />
    <path d="M0.000211168 0.000124656C-0.0292422 0.0257827 3.02611 4.00645 6.8256 8.89156C10.6251 13.7767 13.729 17.7152 13.7584 17.6895C13.7879 17.6639 10.7325 13.6832 6.93302 8.79809C3.13353 3.91298 0.0296646 -0.0255334 0.000211168 0.000124656Z" transform="translate(17.68966 7.862069)" id="Shape" fill="url(#gradient_43)" stroke="none" />
    <path d="M0.000241388 0.000118748C-0.03125 0.0242712 3.02252 4.00405 6.82218 8.88911C10.6218 13.7742 13.7269 17.7146 13.7584 17.6895C13.7899 17.6654 10.7361 13.6856 6.93644 8.80055C3.13678 3.9155 0.0317328 -0.0249282 0.000241388 0.000118748Z" transform="translate(20.63793 9.827586)" id="Shape" fill="url(#gradient_44)" stroke="none" />
    <path d="M0.000196881 0.000133784C-0.0292423 0.0259637 3.24653 3.78734 7.31716 8.4011C11.3878 13.0149 14.7117 16.7335 14.7412 16.7068C14.7706 16.6809 11.4948 12.9196 7.42422 8.30579C3.35358 3.69203 0.029636 -0.0256961 0.000196881 0.000133784Z" transform="translate(19.65517 10.81034)" id="Shape" fill="url(#gradient_45)" stroke="none" />
    <path d="M8.63125e-05 0.000333131C-0.020662 0.0345866 3.70193 2.70265 8.31498 5.95858C12.928 9.21543 16.6852 11.827 16.7068 11.7928C16.7276 11.7585 13.005 9.09045 8.39192 5.83453C3.77801 2.57767 0.0208346 -0.0339203 8.63125e-05 0.000333131Z" transform="translate(16.7069 11.7931)" id="Shape" fill="url(#gradient_46)" stroke="none" />
    <path d="M9.81835e-05 0.00026023C-0.0226738 0.0338849 3.91863 3.14043 8.80322 6.94001C13.6878 10.7396 17.6668 13.792 17.6896 13.7583C17.7123 13.7247 13.771 10.6182 8.88643 6.81859C4.00184 3.01901 0.0228702 -0.0324304 9.81835e-05 0.00026023Z" transform="translate(19.65517 12.77586)" id="Shape" fill="url(#gradient_47)" stroke="none" />
    <path d="M0.000264727 0.000120061C-0.0302679 0.0238629 2.5842 3.56242 5.84072 7.90472C9.09724 12.247 11.7623 15.7478 11.7928 15.724C11.8234 15.7003 9.20891 12.1617 5.95238 7.81942C2.69673 3.47712 0.0316697 -0.0236228 0.000264727 0.000120061Z" transform="translate(21.62069 12.77586)" id="Shape" fill="url(#gradient_48)" stroke="none" />
    <path d="M0.000288589 0.000109449C-0.0315999 0.0227777 2.58325 3.56164 5.83942 7.90348C9.09558 12.2453 11.7609 15.7467 11.7928 15.724C11.8247 15.7014 9.20985 12.1625 5.95369 7.82066C2.69752 3.47881 0.032177 -0.0225588 0.000288589 0.000109449Z" transform="translate(23.58621 12.77586)" id="Shape" fill="url(#gradient_49)" stroke="none" />
    <path d="M4.56152e-05 0.000541465C-0.0154761 0.0362139 3.93221 1.82419 8.81723 3.99498C13.7023 6.16578 17.6749 7.8972 17.6896 7.86153C17.7051 7.82586 13.7574 6.03788 8.87242 3.86709C3.9874 1.69629 0.0155673 -0.035131 4.56152e-05 0.000541465Z" transform="translate(18.67241 15.72414)" id="Shape" fill="url(#gradient_50)" stroke="none" />
    <path d="M0.000157316 0.000309305C-0.0252639 0.0323772 3.03345 2.69873 6.83301 5.95457C10.6326 9.21134 13.733 11.8249 13.7585 11.7928C13.7839 11.7607 10.7252 9.09439 6.92561 5.83856C3.12605 2.58083 0.0255785 -0.0327018 0.000157316 0.000309305Z" transform="translate(20.63793 13.75862)" id="Shape" fill="url(#gradient_51)" stroke="none" />
    <path d="M7.71865e-06 0.0019495C-0.00637613 0.0434594 3.94796 0.73592 8.83343 1.54914C13.718 2.36235 17.6833 2.98783 17.6896 2.94632C17.696 2.90481 13.7417 2.21235 8.85623 1.39914C3.97167 0.586862 0.00639157 -0.0395604 7.71865e-06 0.0019495Z" transform="translate(19.65517 18.67241)" id="Shape" fill="url(#gradient_52)" stroke="none" />
    <path d="M0.000244705 0.0181668C-0.0346986 0.165299 3.67716 1.15541 8.29055 2.23121C12.9039 3.30701 16.6717 4.05912 16.7067 3.91285C16.7416 3.76658 13.0297 2.7756 8.41635 1.6998C3.80295 0.624872 0.035188 -0.1281 0.000244705 0.0181668Z" transform="translate(19.65517 18.67241)" id="Shape" fill="url(#gradient_53)" stroke="none" />
    <path d="M1.5368e-07 0.0190047C-0.000900587 0.0933578 3.95786 0.365423 8.84258 0.627349C13.7273 0.889275 17.6879 1.03798 17.6897 0.963628C17.6906 0.889275 13.7318 0.61721 8.84708 0.355284C3.96236 0.0950477 0.00180164 -0.0553485 1.5368e-07 0.0190047Z" transform="translate(19.65517 19.65517)" id="Shape" fill="url(#gradient_54)" stroke="none" />
    <path d="M2.47539e-06 0.00433202C-0.00361282 0.0548611 3.95333 0.533739 8.8385 1.07463C13.7237 1.61437 17.686 2.01171 17.6897 1.96119C17.6933 1.91066 13.7363 1.43178 8.85115 0.890888C3.96689 0.351145 0.00361777 -0.0461971 2.47539e-06 0.00433202Z" transform="translate(19.65517 19.65517)" id="Shape" fill="url(#gradient_55)" stroke="none" />
    <path d="M6.15189e-07 0.973708C0.00180302 1.02516 3.96258 0.852103 8.84798 0.585507C13.7325 0.31891 17.6915 0.061668 17.6897 0.00905031C17.6879 -0.0423981 13.7271 0.130656 8.84167 0.397252C3.95717 0.663848 -0.00180178 0.921091 6.15189e-07 0.973708Z" transform="translate(19.65517 19.65517)" id="Shape" fill="url(#gradient_56)" stroke="none" />
    <path d="M1.53536e-07 0.0719332C-0.000900358 0.212044 3.95955 0.514555 8.84393 0.747011C13.7292 0.979467 17.6897 1.05271 17.6897 0.909412C17.6906 0.769301 13.7301 0.46679 8.84573 0.234334C3.96135 0.00187795 0.000900665 -0.0681773 1.53536e-07 0.0719332Z" transform="translate(19.65517 19.65517)" id="Shape" fill="url(#gradient_57)" stroke="none" />
    <path d="M7.85143 0.000418712C7.69308 -0.0538891 5.80926 5.18156 3.64403 11.6941C1.4788 18.2076 -0.1477 23.5315 0.0106475 23.5858C0.168995 23.6401 2.05281 18.4046 4.21804 11.8921C6.38241 5.37952 8.00977 0.0556025 7.85143 0.000418712Z" transform="translate(24.56897 8.844828)" id="Shape" fill="url(#gradient_58)" stroke="none" />
  </g>
</svg>